<svg width="40" height="40" viewBox="0 0 40 40" fill="none" xmlns="http://www.w3.org/2000/svg">
<path d="M2.49978 36.2499C2.32338 36.251 2.14876 36.2147 1.98739 36.1435C1.82602 36.0722 1.68155 35.9676 1.56349 35.8366C1.44542 35.7055 1.35643 35.551 1.30236 35.3831C1.24829 35.2152 1.23037 35.0377 1.24978 34.8624L2.21228 26.1124C2.24654 25.8327 2.37428 25.5728 2.57478 25.3749L23.0248 4.92489C23.3963 4.55261 23.8376 4.25725 24.3234 4.05573C24.8093 3.85422 25.3301 3.75049 25.856 3.75049C26.382 3.75049 26.9028 3.85422 27.3886 4.05573C27.8744 4.25725 28.3157 4.55261 28.6873 4.92489L32.5748 8.81239C32.9471 9.18393 33.2424 9.62524 33.4439 10.1111C33.6454 10.5969 33.7492 11.1177 33.7492 11.6436C33.7492 12.1696 33.6454 12.6904 33.4439 13.1762C33.2424 13.662 32.9471 14.1033 32.5748 14.4749L12.1373 34.9124C11.9393 35.1129 11.6794 35.2406 11.3998 35.2749L2.64978 36.2374L2.49978 36.2499ZM4.66228 26.8124L3.91228 33.5874L10.6873 32.8374L30.8123 12.7124C30.9521 12.573 31.0631 12.4074 31.1388 12.2251C31.2145 12.0428 31.2535 11.8473 31.2535 11.6499C31.2535 11.4525 31.2145 11.257 31.1388 11.0747C31.0631 10.8923 30.9521 10.7267 30.8123 10.5874L26.9123 6.68739C26.7729 6.54755 26.6073 6.43659 26.425 6.36088C26.2427 6.28518 26.0472 6.2462 25.8498 6.2462C25.6524 6.2462 25.4569 6.28518 25.2745 6.36088C25.0922 6.43659 24.9266 6.54755 24.7873 6.68739L4.66228 26.8124Z" fill="#292929"/>
<path d="M28.75 17.7623C28.5855 17.7633 28.4224 17.7318 28.2702 17.6696C28.1179 17.6073 27.9793 17.5157 27.8625 17.3998L20.1 9.61234C19.9835 9.49579 19.891 9.35743 19.828 9.20515C19.7649 9.05288 19.7324 8.88967 19.7324 8.72484C19.7324 8.56002 19.7649 8.39681 19.828 8.24453C19.891 8.09225 19.9835 7.95389 20.1 7.83734C20.2166 7.72079 20.3549 7.62834 20.5072 7.56527C20.6595 7.50219 20.8227 7.46973 20.9875 7.46973C21.1524 7.46973 21.3156 7.50219 21.4678 7.56527C21.6201 7.62834 21.7585 7.72079 21.875 7.83734L29.6625 15.6248C29.7797 15.741 29.8727 15.8793 29.9361 16.0316C29.9996 16.1839 30.0323 16.3473 30.0323 16.5123C30.0323 16.6774 29.9996 16.8407 29.9361 16.9931C29.8727 17.1454 29.7797 17.2836 29.6625 17.3998C29.5428 17.5187 29.4002 17.6121 29.2434 17.6744C29.0865 17.7367 28.9187 17.7666 28.75 17.7623Z" fill="#292929"/>
<path d="M20.1066 15.6293L10.375 25.3608L12.1428 27.1286L21.8743 17.397L20.1066 15.6293Z" fill="#292929"/>
<path d="M37.5 36.25H17.5C17.1685 36.25 16.8505 36.1183 16.6161 35.8839C16.3817 35.6495 16.25 35.3315 16.25 35C16.25 34.6685 16.3817 34.3505 16.6161 34.1161C16.8505 33.8817 17.1685 33.75 17.5 33.75H37.5C37.8315 33.75 38.1495 33.8817 38.3839 34.1161C38.6183 34.3505 38.75 34.6685 38.75 35C38.75 35.3315 38.6183 35.6495 38.3839 35.8839C38.1495 36.1183 37.8315 36.25 37.5 36.25Z" fill="#292929"/>
</svg>
