<svg width="40" height="40" viewBox="0 0 40 40" fill="none" xmlns="http://www.w3.org/2000/svg">
<path d="M19.9959 0L18.2566 0.078125L16.5296 0.300164L14.8232 0.682566L13.162 1.20888L11.5461 1.875L10 2.6727L8.52796 3.61431L7.14638 4.67516L5.85938 5.85526L4.68339 7.14638L3.61431 8.52796L2.68092 9.99589L1.875 11.5461L1.20888 13.1538L0.682566 14.8273L0.300164 16.5255L0.078125 18.2607L0 20L0.078125 21.7393L0.300164 23.4745L0.682566 25.1727L1.20888 26.838L1.875 28.4539L2.68092 30.0041L3.61431 31.472L4.68339 32.8536L5.85938 34.1447L7.14638 35.3248L8.52796 36.3857L10 37.3191L11.5461 38.125L13.162 38.7911L14.8232 39.3174L16.5296 39.6998L18.2566 39.9219L19.9959 40L21.7434 39.9219L23.4704 39.6998L25.1768 39.3174L26.838 38.7911L28.4539 38.125L30 37.3191L31.472 36.3857L32.8536 35.3248L34.1406 34.1447L35.3166 32.8536L36.3775 31.472L37.3191 30.0041L38.125 28.4539L38.7911 26.838L39.3133 25.1727L39.6916 23.4745L39.9219 21.7393L40 20L39.9219 18.2607L39.6916 16.5255L39.3133 14.8273L38.7911 13.1538L38.125 11.5461L37.3191 9.99589L36.3775 8.52796L35.3166 7.14638L34.1406 5.85526L32.8536 4.67516L31.472 3.61431L30 2.6727L28.4539 1.875L26.838 1.20888L25.1768 0.682566L23.4704 0.300164L21.7434 0.078125L19.9959 0ZM23.528 2.7097L24.9712 3.06743L26.3775 3.54441L27.7467 4.14062L29.0502 4.85197L30.2919 5.66612L31.4638 6.58306L32.5535 7.59457L33.5485 8.69655L34.4531 9.88487L31.6982 10.5387L28.9104 11.0567L28.2566 9.52714L27.5 8.03865L26.6447 6.60773L25.6949 5.23849L24.6587 3.93914L23.528 2.7097ZM18.2977 3.24424L17.7385 6.03618L17.2738 8.8528L16.9161 11.6817L14.7738 11.5214L12.648 11.2829L10.5222 10.9663L11.3363 9.59704L12.2615 8.31003L13.2936 7.09704L14.4161 5.98273L15.6291 4.95477L16.9285 4.04194L18.2977 3.24424ZM20.7072 3.27303L21.9202 4.42845L23.0428 5.67023L24.0666 6.99836L24.9877 8.40461L25.81 9.86431L26.509 11.3857L24.1036 11.6118L21.69 11.7393L19.2722 11.7599L19.6464 8.91036L20.1234 6.0773L20.7072 3.27303ZM13.6431 3.53618L12.3109 4.73273L11.0814 6.03618L9.97533 7.44243L8.97615 8.93092L8.11267 10.5016L5.54688 9.88487L6.45148 8.69655L7.45477 7.59046L8.5403 6.57895L9.7204 5.6579L10.9622 4.83553L12.2738 4.12829L13.6431 3.53618ZM4.28043 11.9778L7.17516 12.6974L6.62007 14.4408L6.21711 16.2171L5.97451 18.0222L5.87993 19.8396L4.12829 19.4819L2.38076 19.0872L2.52056 17.6069L2.77961 16.1513L3.16612 14.7204L3.66365 13.3224L4.28043 11.9778ZM35.7196 11.9778L36.3363 13.3224L36.8339 14.7204L37.2204 16.1513L37.4794 17.6069L37.6192 19.0872L35.2919 19.6053L32.94 20.0576L30.5798 20.4276L30.5469 18.6308L30.3824 16.8421L30.0905 15.0658L29.6669 13.3183L31.6982 12.9441L33.7171 12.4959L35.7196 11.9778ZM9.50247 13.1785L11.8914 13.5567L14.2887 13.8363L16.6982 14.0255L16.5584 16.3775L16.4803 18.7377V21.0938L13.7212 20.9128L10.9704 20.6332L8.24013 20.2508L8.27714 18.8076L8.42105 17.3684L8.67599 15.9416L9.04194 14.5395L9.50247 13.1785ZM27.3191 13.6595L27.7508 15.3947L28.0551 17.1587L28.2072 18.9391L28.2237 20.7237L25.0987 21.0033L21.9696 21.1513L18.8322 21.1637V18.8117L18.9104 16.4638L19.0543 14.1118L21.8133 14.0872L24.5724 13.9433L27.3191 13.6595ZM2.42188 21.509L4.2023 21.9038L5.99918 22.2615L6.21299 23.713L6.51316 25.1521L6.92023 26.5707L7.41776 27.9523L8.01398 29.301L6.24589 28.8857L4.49013 28.4169L3.8528 27.1094L3.31826 25.7648L2.90707 24.375L2.6028 22.9564L2.42188 21.509ZM37.5781 21.509L37.3972 22.9564L37.0929 24.375L36.6817 25.7648L36.1472 27.1094L35.5099 28.4169L33.1908 29.0296L30.8553 29.5313L28.4951 29.9465L29.1776 28.2278L29.7245 26.4597L30.1439 24.6546L30.4276 22.8289L32.8207 22.463L35.2056 22.023L37.5781 21.509ZM8.42105 22.6604L11.1266 23.0181L13.8281 23.2854L16.5502 23.4539L16.69 25.8141L16.8997 28.1702L17.1875 30.514L15.1192 30.3742L13.0551 30.1563L10.9992 29.8684L10.2549 28.5238L9.62171 27.1176L9.10362 25.6661L8.70477 24.1776L8.42105 22.6604ZM28.0181 23.1168L27.7508 24.6053L27.3931 26.0814L26.9326 27.5164L26.3692 28.9309L25.7237 30.3002L23.676 30.4688L21.6242 30.5633L19.5683 30.588L19.2722 28.2401L19.0543 25.884L18.9104 23.5238L21.949 23.5033L24.9877 23.3676L28.0181 23.1168ZM6.50493 31.3734L8.04276 31.7146L9.58882 32.0107L10.4811 33.2319L11.4556 34.3832L12.5164 35.4646L13.6431 36.4638L12.2903 35.8799L10.991 35.1768L9.7574 34.3709L8.58964 33.4663L7.50411 32.4589L6.50493 31.3734ZM33.4951 31.3734L32.4959 32.4589L31.4104 33.4663L30.2426 34.3709L29.009 35.1686L27.7097 35.8717L26.3569 36.4638L24.9589 36.9408L23.528 37.2903L24.5518 36.1801L25.5058 35.0082L26.3898 33.7788L27.1916 32.5041L29.3051 32.1998L31.4104 31.8215L33.4951 31.3734ZM12.9441 32.5164L15.2467 32.7467L17.5452 32.8906L17.8988 34.8314L18.2977 36.7558L16.8257 35.8882L15.4276 34.8808L14.1365 33.7541L12.9441 32.5164ZM24.2146 32.7919L23.1497 34.1941L21.9778 35.514L20.7072 36.727L20.3002 34.8396L19.9424 32.9441L22.0806 32.903L24.2146 32.7919Z" fill="#F5F5F5" stroke="#F5F5F5" stroke-width="0.00185"/>
</svg>
